<svg xmlns="http://www.w3.org/2000/svg" width="196.42" height="35" viewBox="0 0 196.42 35"><rect class="svg__rect" x="0" y="0" width="117.03" height="35" fill="#313131"/><rect class="svg__rect" x="115.03" y="0" width="81.38999999999999" height="35" fill="#389AD5"/><path class="svg__text" d="M17.33 22L14.22 22L14.22 13.47L17.14 13.47Q18.59 13.47 19.34 14.05Q20.10 14.63 20.10 15.78L20.10 15.78Q20.10 16.36 19.78 16.83Q19.47 17.30 18.86 17.56L18.86 17.56Q19.55 17.75 19.93 18.26Q20.31 18.78 20.31 19.51L20.31 19.51Q20.31 20.71 19.53 21.36Q18.76 22 17.33 22L17.33 22ZM15.70 18.15L15.70 20.82L17.35 20.82Q18.04 20.82 18.44 20.47Q18.83 20.13 18.83 19.51L18.83 19.51Q18.83 18.18 17.47 18.15L17.47 18.15L15.70 18.15ZM15.70 14.66L15.70 17.06L17.15 17.06Q17.84 17.06 18.23 16.75Q18.62 16.43 18.62 15.86L18.62 15.86Q18.62 15.23 18.26 14.95Q17.90 14.66 17.14 14.66L17.14 14.66L15.70 14.66ZM24.64 19.16L24.64 19.16L24.64 13.47L26.12 13.47L26.12 19.18Q26.12 20.03 26.55 20.48Q26.98 20.93 27.83 20.93L27.83 20.93Q29.54 20.93 29.54 19.13L29.54 19.13L29.54 13.47L31.02 13.47L31.02 19.17Q31.02 20.53 30.15 21.32Q29.28 22.12 27.83 22.12L27.83 22.12Q26.36 22.12 25.50 21.33Q24.64 20.55 24.64 19.16ZM37.15 22L35.67 22L35.67 13.47L37.15 13.47L37.15 22ZM47.32 22L41.96 22L41.96 13.47L43.44 13.47L43.44 20.82L47.32 20.82L47.32 22ZM53.12 14.66L50.49 14.66L50.49 13.47L57.25 13.47L57.25 14.66L54.59 14.66L54.59 22L53.12 22L53.12 14.66ZM68.37 22L66.40 13.47L67.87 13.47L69.20 19.88L70.82 13.47L72.07 13.47L73.68 19.89L74.99 13.47L76.46 13.47L74.49 22L73.07 22L71.45 15.77L69.79 22L68.37 22ZM82.10 22L80.62 22L80.62 13.47L82.10 13.47L82.10 22ZM88.59 14.66L85.95 14.66L85.95 13.47L92.72 13.47L92.72 14.66L90.06 14.66L90.06 22L88.59 22L88.59 14.66ZM97.96 22L96.48 22L96.48 13.47L97.96 13.47L97.96 17.02L101.77 17.02L101.77 13.47L103.25 13.47L103.25 22L101.77 22L101.77 18.21L97.96 18.21L97.96 22Z" fill="#FFFFFF"/><path class="svg__text" d="M131.01 15.48L128.43 15.48L128.43 13.60L135.95 13.60L135.95 15.48L133.38 15.48L133.38 22L131.01 22L131.01 15.48ZM147.07 22L140.32 22L140.32 13.60L146.91 13.60L146.91 15.44L142.68 15.44L142.68 16.85L146.41 16.85L146.41 18.63L142.68 18.63L142.68 20.17L147.07 20.17L147.07 22ZM153.29 22L150.86 22L154.57 13.60L156.92 13.60L160.63 22L158.16 22L157.50 20.37L153.95 20.37L153.29 22ZM155.73 15.93L154.64 18.61L156.80 18.61L155.73 15.93ZM167.16 22L164.78 22L164.78 13.60L168.63 13.60Q169.77 13.60 170.61 13.98Q171.45 14.35 171.90 15.06Q172.36 15.76 172.36 16.71L172.36 16.71Q172.36 17.62 171.93 18.30Q171.50 18.98 170.71 19.36L170.71 19.36L172.52 22L169.98 22L168.46 19.77L167.16 19.77L167.16 22ZM167.16 15.47L167.16 17.93L168.48 17.93Q169.21 17.93 169.59 17.61Q169.96 17.29 169.96 16.71L169.96 16.71Q169.96 16.12 169.59 15.79Q169.21 15.47 168.48 15.47L168.48 15.47L167.16 15.47ZM176.56 21.24L176.56 21.24L177.34 19.49Q177.90 19.86 178.65 20.09Q179.39 20.32 180.11 20.32L180.11 20.32Q181.48 20.32 181.48 19.64L181.48 19.64Q181.48 19.28 181.09 19.11Q180.70 18.93 179.84 18.74L179.84 18.74Q178.89 18.53 178.25 18.30Q177.62 18.06 177.16 17.55Q176.71 17.03 176.71 16.16L176.71 16.16Q176.71 15.39 177.13 14.77Q177.55 14.15 178.38 13.79Q179.22 13.43 180.42 13.43L180.42 13.43Q181.25 13.43 182.05 13.62Q182.86 13.80 183.48 14.17L183.48 14.17L182.74 15.93Q181.54 15.28 180.41 15.28L180.41 15.28Q179.70 15.28 179.38 15.49Q179.06 15.70 179.06 16.04L179.06 16.04Q179.06 16.37 179.44 16.54Q179.83 16.71 180.67 16.89L180.67 16.89Q181.64 17.10 182.27 17.33Q182.90 17.56 183.36 18.07Q183.82 18.58 183.82 19.46L183.82 19.46Q183.82 20.21 183.40 20.83Q182.98 21.44 182.14 21.80Q181.30 22.17 180.10 22.17L180.10 22.17Q179.08 22.17 178.12 21.92Q177.16 21.67 176.56 21.24Z" fill="#FFFFFF" x="128.03"/></svg>