<svg xmlns="http://www.w3.org/2000/svg" width="231.88" height="35" viewBox="0 0 231.88 35"><rect class="svg__rect" x="0" y="0" width="103.98" height="35" fill="#8D4B9E"/><rect class="svg__rect" x="101.98" y="0" width="129.9" height="35" fill="#973A80"/><path class="svg__text" d="M15.70 22L14.22 22L14.22 13.47L17.22 13.47Q18.69 13.47 19.50 14.13Q20.30 14.79 20.30 16.05L20.30 16.05Q20.30 16.90 19.89 17.48Q19.47 18.06 18.73 18.37L18.73 18.37L20.65 21.92L20.65 22L19.06 22L17.35 18.71L15.70 18.71L15.70 22ZM15.70 14.66L15.70 17.52L17.22 17.52Q17.97 17.52 18.39 17.15Q18.82 16.77 18.82 16.11L18.82 16.11Q18.82 15.43 18.43 15.05Q18.04 14.68 17.26 14.66L17.26 14.66L15.70 14.66ZM30.27 22L24.69 22L24.69 13.47L30.23 13.47L30.23 14.66L26.18 14.66L26.18 17.02L29.68 17.02L29.68 18.19L26.18 18.19L26.18 20.82L30.27 20.82L30.27 22ZM36.03 22L34.56 22L34.56 13.47L36.03 13.47L36.03 22ZM42.32 22L40.84 22L40.84 13.47L42.32 13.47L46.14 19.54L46.14 13.47L47.61 13.47L47.61 22L46.13 22L42.32 15.95L42.32 22ZM54.65 22L51.59 13.47L53.21 13.47L55.36 20.14L57.52 13.47L59.15 13.47L56.08 22L54.65 22ZM68.68 22L63.10 22L63.10 13.47L68.64 13.47L68.64 14.66L64.58 14.66L64.58 17.02L68.09 17.02L68.09 18.19L64.58 18.19L64.58 20.82L68.68 20.82L68.68 22ZM74.36 22L72.88 22L72.88 13.47L74.36 13.47L78.17 19.54L78.17 13.47L79.64 13.47L79.64 22L78.16 22L74.36 15.95L74.36 22ZM86.06 14.66L83.43 14.66L83.43 13.47L90.20 13.47L90.20 14.66L87.54 14.66L87.54 22L86.06 22L86.06 14.66Z" fill="#FFFFFF"/><path class="svg__text" d="M117.96 15.48L115.38 15.48L115.38 13.60L122.90 13.60L122.90 15.48L120.33 15.48L120.33 22L117.96 22L117.96 15.48ZM129.65 22L127.27 22L127.27 13.60L129.65 13.60L129.65 16.76L132.89 16.76L132.89 13.60L135.26 13.60L135.26 22L132.89 22L132.89 18.72L129.65 18.72L129.65 22ZM147.17 22L140.43 22L140.43 13.60L147.02 13.60L147.02 15.44L142.78 15.44L142.78 16.85L146.51 16.85L146.51 18.63L142.78 18.63L142.78 20.17L147.17 20.17L147.17 22ZM161.03 22L158.30 13.60L160.75 13.60L162.44 18.96L164.21 13.60L166.40 13.60L168.09 19.01L169.86 13.60L172.12 13.60L169.40 22L166.86 22L165.25 16.89L163.57 22L161.03 22ZM179.02 22L176.64 22L176.64 13.60L179.02 13.60L179.02 16.76L182.26 16.76L182.26 13.60L184.63 13.60L184.63 22L182.26 22L182.26 18.72L179.02 18.72L179.02 22ZM196.54 22L189.79 22L189.79 13.60L196.38 13.60L196.38 15.44L192.15 15.44L192.15 16.85L195.88 16.85L195.88 18.63L192.15 18.63L192.15 20.17L196.54 20.17L196.54 22ZM208.08 22L201.34 22L201.34 13.60L207.93 13.60L207.93 15.44L203.70 15.44L203.70 16.85L207.43 16.85L207.43 18.63L203.70 18.63L203.70 20.17L208.08 20.17L208.08 22ZM219.28 22L212.89 22L212.89 13.60L215.27 13.60L215.27 20.11L219.28 20.11L219.28 22Z" fill="#FFFFFF" x="114.98"/></svg>